<?xml version="1.0" encoding="utf-8"?>
<!-- Generator: Adobe Illustrator 25.1.0, SVG Export Plug-In . SVG Version: 6.00 Build 0)  -->
<svg version="1.1" id="Capa_1" xmlns="http://www.w3.org/2000/svg" xmlns:xlink="http://www.w3.org/1999/xlink" x="0px" y="0px"
	 viewBox="0 0 64 64" style="enable-background:new 0 0 64 64;" xml:space="preserve">
<style type="text/css">
	.st0{fill:#30AFB2;}
</style>
<g>
	<path class="st0" d="M55.45,22.76L33.99,4.86c-0.73-0.61-1.91-0.61-2.63,0L9.9,22.76c-0.53,0.44-0.69,1.11-0.4,1.69
		c0.29,0.58,0.97,0.96,1.72,0.96h7.77v23.62c0,0.86,0.84,1.55,1.86,1.55s1.86-0.7,1.86-1.55V25.42h20.05
		c-0.07,0.16-0.12,0.33-0.12,0.51V50.4c0,0.86,0.84,1.55,1.86,1.55c1.03,0,1.86-0.7,1.86-1.55V25.92c0-0.18-0.05-0.35-0.12-0.51
		h7.89c0.75,0,1.43-0.38,1.72-0.96C56.15,23.88,55.99,23.21,55.45,22.76z M15.71,22.31L32.68,8.16l16.96,14.15H15.71z"/>
	<path class="st0" d="M32.68,31.19c-1.03,0-1.86,0.7-1.86,1.55v25.7c0,0.86,0.84,1.55,1.86,1.55c1.03,0,1.86-0.7,1.86-1.55v-25.7
		C34.54,31.89,33.7,31.19,32.68,31.19z"/>
</g>
</svg>
