<?xml version="1.0" encoding="utf-8"?>
<!-- Generator: Adobe Illustrator 25.1.0, SVG Export Plug-In . SVG Version: 6.00 Build 0)  -->
<svg version="1.1" id="Capa_1" xmlns="http://www.w3.org/2000/svg" xmlns:xlink="http://www.w3.org/1999/xlink" x="0px" y="0px"
	 viewBox="0 0 64 64" style="enable-background:new 0 0 64 64;" xml:space="preserve">
<style type="text/css">
	.st0{fill:#30AFB2;}
</style>
<g>
	<path class="st0" d="M9.9,41.64l21.46,17.9c0.73,0.61,1.91,0.61,2.63,0l21.46-17.9c0.53-0.44,0.69-1.11,0.4-1.69
		c-0.29-0.58-0.97-0.96-1.72-0.96h-7.77V15.37c0-0.86-0.84-1.55-1.86-1.55c-1.03,0-1.86,0.7-1.86,1.55v23.62H22.59
		c0.07-0.16,0.12-0.33,0.12-0.51V14c0-0.86-0.84-1.55-1.86-1.55c-1.03,0-1.86,0.7-1.86,1.55v24.48c0,0.18,0.05,0.35,0.12,0.51h-7.89
		c-0.75,0-1.43,0.38-1.72,0.96C9.21,40.53,9.36,41.2,9.9,41.64z M49.64,42.1L32.68,56.25L15.71,42.1H49.64z"/>
	<path class="st0" d="M32.68,33.22c1.03,0,1.86-0.7,1.86-1.55V5.96c0-0.86-0.84-1.55-1.86-1.55c-1.03,0-1.86,0.7-1.86,1.55v25.7
		C30.81,32.52,31.65,33.22,32.68,33.22z"/>
</g>
</svg>
