<?xml version="1.0" encoding="utf-8"?>
<!-- Generator: Adobe Illustrator 25.1.0, SVG Export Plug-In . SVG Version: 6.00 Build 0)  -->
<svg version="1.1" id="Capa_1" xmlns="http://www.w3.org/2000/svg" xmlns:xlink="http://www.w3.org/1999/xlink" x="0px" y="0px"
	 viewBox="0 0 64 64" style="enable-background:new 0 0 64 64;" xml:space="preserve">
<style type="text/css">
	.st0{opacity:0.96;fill:#30AFB2;}
	.st1{fill:#30AFB2;}
</style>
<g>
	<path class="st0" d="M61,24.48c0-0.34-0.08-0.66-0.21-0.95c-0.03-0.07-0.09-0.12-0.13-0.19c-0.12-0.22-0.26-0.42-0.44-0.59
		c-0.01-0.01-0.02-0.03-0.04-0.05l-23-20.15c-0.12-0.11-0.27-0.16-0.41-0.24c-0.1-0.06-0.19-0.13-0.3-0.18
		c-0.28-0.11-0.59-0.18-0.9-0.18H7.78c-1.33,0-2.41,1.06-2.41,2.38v56.29c0,1.31,1.08,2.38,2.41,2.38s2.41-1.07,2.41-2.38V7.48
		c0-0.43,0.35-0.78,0.78-0.78H32.4c0.43,0,0.78,0.35,0.78,0.78v17c0,1.31,1.08,2.38,2.41,2.38H55.4c0.43,0,0.78,0.35,0.78,0.78
		v32.99c0,1.31,1.08,2.38,2.41,2.38c1.33,0,2.41-1.07,2.41-2.38V24.48L61,24.48L61,24.48z M39.29,10.75l11.4,9.99
		c0.54,0.47,0.2,1.36-0.51,1.36h-11.4c-0.43,0-0.78-0.35-0.78-0.78v-9.99C38,10.67,38.79,10.31,39.29,10.75z"/>
</g>
<path class="st1" d="M22.97,43c-0.97,0-1.78,0.73-1.89,1.7C21.03,45.13,21,45.56,21,46s0.03,0.87,0.08,1.3
	C21.19,48.27,22,49,22.97,49h17.06c0.97,0,1.78-0.73,1.89-1.7C41.97,46.87,42,46.44,42,46s-0.03-0.87-0.08-1.3
	C41.81,43.73,41,43,40.03,43H22.97z"/>
<path class="st1" d="M35,36.9V55.1c0,1.05-0.85,1.9-1.9,1.9H30.9c-1.05,0-1.9-0.85-1.9-1.9V36.9c0-1.05,0.85-1.9,1.9-1.9h2.21
	C34.15,35,35,35.85,35,36.9z"/>
</svg>
