<?xml version="1.0" encoding="utf-8"?>
<!-- Generator: Adobe Illustrator 25.1.0, SVG Export Plug-In . SVG Version: 6.00 Build 0)  -->
<svg version="1.1" id="Capa_1" xmlns="http://www.w3.org/2000/svg" xmlns:xlink="http://www.w3.org/1999/xlink" x="0px" y="0px"
	 viewBox="0 0 64 64" style="enable-background:new 0 0 64 64;" xml:space="preserve">
<style type="text/css">
	.st0{fill:#30AFB2;}
</style>
<g>
	<path class="st0" d="M43.09,52.64c-0.5,0-0.99-0.13-1.42-0.38L11.93,35.08c-0.66-0.38-1.13-0.99-1.33-1.73
		c-0.2-0.73-0.1-1.5,0.28-2.16L26.22,4.63c0.51-0.88,1.45-1.42,2.47-1.42c0.5,0,0.99,0.13,1.42,0.38l29.74,17.17
		c1.36,0.79,1.83,2.53,1.04,3.89L45.56,51.21C45.05,52.09,44.1,52.64,43.09,52.64z"/>
	<path class="st0" d="M28.69,3.71L28.69,3.71c0.41,0,0.81,0.11,1.17,0.32L59.6,21.19c1.12,0.65,1.51,2.09,0.86,3.21L45.12,50.96
		c-0.42,0.72-1.2,1.17-2.04,1.17c-0.41,0-0.81-0.11-1.17-0.32L12.18,34.65c-0.54-0.31-0.93-0.82-1.09-1.43
		c-0.16-0.61-0.08-1.24,0.23-1.78L26.66,4.88C27.07,4.16,27.85,3.71,28.69,3.71 M28.69,2.71c-1.16,0-2.28,0.6-2.9,1.67L10.45,30.94
		c-0.92,1.6-0.38,3.65,1.23,4.57l29.74,17.17c0.53,0.3,1.1,0.45,1.67,0.45c1.16,0,2.28-0.6,2.9-1.67L61.33,24.9
		c0.92-1.6,0.38-3.65-1.23-4.57L30.36,3.16C29.84,2.85,29.26,2.71,28.69,2.71L28.69,2.71z"/>
</g>
<g>
	<path class="st0" d="M21.6,30.11L21.6,30.11c1.39,0,2.76,0.37,3.97,1.06l13.07,7.55c1.84,1.06,3.16,2.79,3.71,4.86
		s0.28,4.23-0.79,6.07l-1.15,1.99c-1.42,2.46-4.09,3.99-6.96,3.99c-1.39,0-2.76-0.37-3.97-1.06l-13.07-7.55
		c-1.84-1.06-3.16-2.79-3.71-4.86s-0.28-4.23,0.79-6.07l1.15-1.99C16.05,31.64,18.72,30.11,21.6,30.11 M21.6,26.11
		c-4.16,0-8.21,2.15-10.43,5.99l-1.15,1.99c-3.3,5.72-1.32,13.09,4.39,16.39l13.07,7.55c1.88,1.08,3.93,1.6,5.97,1.6
		c4.16,0,8.21-2.15,10.43-5.99l1.15-1.99c3.3-5.72,1.32-13.09-4.39-16.39l-13.07-7.55C25.68,26.63,23.63,26.11,21.6,26.11
		L21.6,26.11z"/>
</g>
</svg>
