<?xml version="1.0" encoding="utf-8"?>
<!-- Generator: Adobe Illustrator 25.1.0, SVG Export Plug-In . SVG Version: 6.00 Build 0)  -->
<svg version="1.1" id="Capa_1" xmlns="http://www.w3.org/2000/svg" xmlns:xlink="http://www.w3.org/1999/xlink" x="0px" y="0px"
	 viewBox="0 0 64 64" style="enable-background:new 0 0 64 64;" xml:space="preserve">
<style type="text/css">
	.st0{fill:#30AFB2;}
</style>
<path class="st0" d="M38.42,32.17c5.1-2.5,8.65-7.69,8.65-13.73c0-8.46-6.88-15.34-15.34-15.34c-8.46,0-15.34,6.88-15.34,15.34
	c0,6.05,3.55,11.24,8.65,13.73c-8.48,0.01-15.38,6.92-15.38,15.4v12.07C9.65,60.95,10.7,62,12,62c1.3,0,2.35-1.05,2.35-2.35V47.58
	c0-5.9,4.8-10.7,10.7-10.7h13.34c5.9,0,10.7,4.8,10.7,10.7v12.07c0,1.3,1.06,2.35,2.35,2.35c1.3,0,2.35-1.05,2.35-2.35V47.58
	C53.8,39.09,46.9,32.19,38.42,32.17z M21.09,18.44c0-5.87,4.77-10.64,10.63-10.64c5.87,0,10.64,4.77,10.64,10.64
	c0,5.86-4.77,10.64-10.64,10.64C25.86,29.08,21.09,24.3,21.09,18.44z"/>
</svg>
