<?xml version="1.0" encoding="utf-8"?>
<!-- Generator: Adobe Illustrator 25.1.0, SVG Export Plug-In . SVG Version: 6.00 Build 0)  -->
<svg version="1.1" id="Capa_1" xmlns="http://www.w3.org/2000/svg" xmlns:xlink="http://www.w3.org/1999/xlink" x="0px" y="0px"
	 viewBox="0 0 64 64" style="enable-background:new 0 0 64 64;" xml:space="preserve">
<style type="text/css">
	.st0{fill:none;stroke:#30AFB2;stroke-width:4;stroke-miterlimit:10;}
	.st1{opacity:0.96;fill:#30AFB2;}
	.st2{fill:#30AFB2;}
</style>
<g>
	<line class="st0" x1="57" y1="60" x2="11" y2="60"/>
	<path class="st1" d="M59,24.11c0-0.33-0.07-0.65-0.19-0.93c-0.03-0.07-0.08-0.12-0.11-0.18c-0.11-0.21-0.23-0.41-0.39-0.58
		c-0.01-0.01-0.02-0.03-0.03-0.05L37.76,2.54c-0.11-0.1-0.24-0.16-0.36-0.24c-0.09-0.06-0.17-0.13-0.27-0.18
		c-0.25-0.11-0.52-0.18-0.8-0.18H11.52c-1.19,0-2.15,1.05-2.15,2.34v55.37c0,1.29,0.97,2.34,2.15,2.34s2.15-1.05,2.15-2.34V7.39
		c0-0.42,0.31-0.76,0.69-0.76h19.12c0.38,0,0.69,0.34,0.69,0.76v16.72c0,1.29,0.97,2.34,2.15,2.34H54c0.38,0,0.69,0.34,0.69,0.76
		v32.45c0,1.29,0.97,2.34,2.15,2.34c1.19,0,2.15-1.05,2.15-2.34V24.11L59,24.11L59,24.11z M39.63,10.61l10.17,9.83
		c0.48,0.46,0.18,1.34-0.46,1.34H39.17c-0.38,0-0.69-0.34-0.69-0.76v-9.83C38.48,10.53,39.18,10.18,39.63,10.61z"/>
</g>
<g>
	<path class="st2" d="M26.59,40.91c-0.79,0-1.44,0.63-1.53,1.47C25.02,42.74,25,43.12,25,43.5s0.02,0.76,0.06,1.12
		c0.09,0.83,0.75,1.47,1.53,1.47h13.81c0.79,0,1.44-0.63,1.53-1.47C41.98,44.26,42,43.88,42,43.5s-0.02-0.76-0.06-1.12
		c-0.09-0.83-0.75-1.47-1.53-1.47H26.59z"/>
	<path class="st2" d="M36.09,35.9V51.1c0,1.05-0.85,1.9-1.9,1.9h-1.39c-1.05,0-1.9-0.85-1.9-1.9V35.9c0-1.05,0.85-1.9,1.9-1.9h1.39
		C35.24,34,36.09,34.85,36.09,35.9z"/>
</g>
</svg>
