<?xml version="1.0" encoding="utf-8"?>
<!-- Generator: Adobe Illustrator 25.1.0, SVG Export Plug-In . SVG Version: 6.00 Build 0)  -->
<svg version="1.1" id="Capa_1" xmlns="http://www.w3.org/2000/svg" xmlns:xlink="http://www.w3.org/1999/xlink" x="0px" y="0px"
	 viewBox="0 0 64 64" style="enable-background:new 0 0 64 64;" xml:space="preserve">
<style type="text/css">
	.st0{fill:#FFFFFF;stroke:#30AFB2;stroke-width:3;stroke-miterlimit:10;}
</style>
<path class="st0" d="M33.5,44.5"/>
<path class="st0" d="M23.45,36.69L59.31,5.95c0.92-0.79,2.24,0.33,1.6,1.37L36.15,47.45c-0.34,0.55-1.1,0.68-1.6,0.25
	c-1.35-2.4-2.05-5.2-4.05-7.2c-1.74-1.74-4.7-1.46-7.04-2.19C22.95,37.88,22.95,37.11,23.45,36.69z"/>
<path class="st0" d="M4.5,58.5c0.87,0.55,3.13-4.54,8-5c3.19-0.3,4.37,1.68,8,2c2.39,0.21,5.57-0.32,9.5-3.11
	c0.06-0.33,0.2-4.35-2.6-8.08C25.66,42,22.77,42.77,20.46,42c-2,0.14-4.99,0.65-7.96,2.5C5.49,48.88,3.41,57.81,4.5,58.5z"/>
</svg>
